<svg width="52" height="52" viewBox="0 0 52 52" fill="none" xmlns="http://www.w3.org/2000/svg">
<g filter="url(#filter0_d_81_592)">
<rect x="4" width="44" height="44" rx="6" fill="#2C2C2C"/>
<g clip-path="url(#clip0_81_592)">
<g filter="url(#filter1_d_81_592)">
<path d="M20.0027 6H23.44V7.43733H21.44V8.87467H23.44V10.312H20.0027V6ZM24.1267 6H27.5654V7.25067H25.5654V7.5H27.5654V10.3747H24.1267V9.06267H26.1267V8.812H24.1267V6ZM28.2534 6H31.6894V7.25067H29.6894V7.5H31.6894V10.3747H28.2534V9.06267H30.2534V8.812H28.2534V6Z" fill="#829414"/>
</g>
<g filter="url(#filter2_d_81_592)">
<path fill-rule="evenodd" clip-rule="evenodd" d="M25.988 38L16.7293 35.4293L14 12.2893H38L35.272 35.4267L25.988 38ZM19.396 22.764L19.6507 25.6013H29.4867L29.1573 29.2813L25.992 30.1373H25.9893L22.8293 29.284L22.6267 27.0213H19.7773L20.1747 31.4773L25.988 33.0907L31.8107 31.4773L32.52 23.5253L32.5893 22.764L33.1013 17.0187H18.8853L19.144 19.8573H29.992L29.7333 22.764H19.396Z" fill="#829414"/>
</g>
</g>
</g>
<defs>
<filter id="filter0_d_81_592" x="0" y="0" width="52" height="52" filterUnits="userSpaceOnUse" color-interpolation-filters="sRGB">
<feFlood flood-opacity="0" result="BackgroundImageFix"/>
<feColorMatrix in="SourceAlpha" type="matrix" values="0 0 0 0 0 0 0 0 0 0 0 0 0 0 0 0 0 0 127 0" result="hardAlpha"/>
<feOffset dy="4"/>
<feGaussianBlur stdDeviation="2"/>
<feComposite in2="hardAlpha" operator="out"/>
<feColorMatrix type="matrix" values="0 0 0 0 0 0 0 0 0 0 0 0 0 0 0 0 0 0 0.25 0"/>
<feBlend mode="normal" in2="BackgroundImageFix" result="effect1_dropShadow_81_592"/>
<feBlend mode="normal" in="SourceGraphic" in2="effect1_dropShadow_81_592" result="shape"/>
</filter>
<filter id="filter1_d_81_592" x="18.0027" y="4" width="15.6866" height="8.37466" filterUnits="userSpaceOnUse" color-interpolation-filters="sRGB">
<feFlood flood-opacity="0" result="BackgroundImageFix"/>
<feColorMatrix in="SourceAlpha" type="matrix" values="0 0 0 0 0 0 0 0 0 0 0 0 0 0 0 0 0 0 127 0" result="hardAlpha"/>
<feOffset/>
<feGaussianBlur stdDeviation="1"/>
<feComposite in2="hardAlpha" operator="out"/>
<feColorMatrix type="matrix" values="0 0 0 0 0 0 0 0 0 0 0 0 0 0 0 0 0 0 0.25 0"/>
<feBlend mode="normal" in2="BackgroundImageFix" result="effect1_dropShadow_81_592"/>
<feBlend mode="normal" in="SourceGraphic" in2="effect1_dropShadow_81_592" result="shape"/>
</filter>
<filter id="filter2_d_81_592" x="12" y="10.2893" width="28" height="29.7107" filterUnits="userSpaceOnUse" color-interpolation-filters="sRGB">
<feFlood flood-opacity="0" result="BackgroundImageFix"/>
<feColorMatrix in="SourceAlpha" type="matrix" values="0 0 0 0 0 0 0 0 0 0 0 0 0 0 0 0 0 0 127 0" result="hardAlpha"/>
<feOffset/>
<feGaussianBlur stdDeviation="1"/>
<feComposite in2="hardAlpha" operator="out"/>
<feColorMatrix type="matrix" values="0 0 0 0 0 0 0 0 0 0 0 0 0 0 0 0 0 0 0.25 0"/>
<feBlend mode="normal" in2="BackgroundImageFix" result="effect1_dropShadow_81_592"/>
<feBlend mode="normal" in="SourceGraphic" in2="effect1_dropShadow_81_592" result="shape"/>
</filter>
<clipPath id="clip0_81_592">
<rect width="32" height="32" fill="white" transform="translate(10 6)"/>
</clipPath>
</defs>
</svg>
