<svg width="40" height="39" viewBox="0 0 40 39" fill="none" xmlns="http://www.w3.org/2000/svg">
<rect x="0.250488" y="0.124146" width="39.4989" height="38.7516" rx="19.3758" fill="white"/>
<path d="M38.6734 26.1235L34.0625 7.93756C33.9411 7.46412 33.6843 7.03635 33.3235 6.70665C32.9627 6.37694 32.5136 6.15962 32.0312 6.08131L26.3968 5.15631C25.7757 5.05641 25.1396 5.1911 24.6123 5.53418C24.0849 5.87727 23.7041 6.40422 23.5437 7.01256L23.5109 7.14537C23.4896 7.22975 23.4863 7.31764 23.5009 7.40341C23.5156 7.48917 23.548 7.57093 23.5961 7.64344C23.6442 7.71595 23.7069 7.77762 23.7802 7.8245C23.8535 7.87138 23.9358 7.90244 24.0218 7.91569C25.3147 8.10543 26.5902 8.39909 27.8359 8.79381C28.1473 8.88777 28.4113 9.09667 28.5744 9.37813C28.7375 9.65959 28.7874 9.99253 28.714 10.3094C28.6719 10.4746 28.5964 10.6294 28.4922 10.7642C28.388 10.8991 28.2573 11.0113 28.1082 11.0938C27.9591 11.1764 27.7946 11.2275 27.625 11.2442C27.4554 11.2609 27.2842 11.2426 27.1218 11.1907C22.4997 9.77316 17.5596 9.76772 12.9343 11.1751C12.6213 11.2803 12.2798 11.2609 11.9807 11.121C11.6816 10.981 11.4479 10.7312 11.3281 10.4235C11.2712 10.2656 11.2466 10.0978 11.2559 9.93021C11.2652 9.76261 11.3082 9.59859 11.3823 9.44796C11.4564 9.29733 11.56 9.16315 11.6871 9.05345C11.8142 8.94375 11.962 8.86076 12.1218 8.80944C13.3831 8.4077 14.6748 8.10881 15.9843 7.91569C16.0703 7.90244 16.1526 7.87138 16.2259 7.8245C16.2992 7.77762 16.3619 7.71595 16.41 7.64344C16.4581 7.57093 16.4905 7.48917 16.5052 7.40341C16.5199 7.31764 16.5165 7.22975 16.4953 7.14537L16.4625 7.01256C16.3021 6.4037 15.9206 5.87641 15.3926 5.53351C14.8645 5.19062 14.2277 5.0567 13.6062 5.15787L7.96871 6.08287C7.48648 6.16107 7.0375 6.37816 6.67674 6.70756C6.31597 7.03697 6.05906 7.46441 5.93746 7.93756L1.32652 26.1235C1.18194 26.6951 1.24487 27.2995 1.50409 27.8291C1.76331 28.3587 2.20201 28.7792 2.74214 29.0157L13.2109 33.6579C13.5257 33.7978 13.8658 33.8719 14.2102 33.8756C14.5547 33.8793 14.8963 33.8125 15.214 33.6793C15.5317 33.5462 15.8188 33.3494 16.0577 33.1012C16.2966 32.853 16.4822 32.5586 16.6031 32.236L17.1484 30.7594C17.1809 30.671 17.193 30.5763 17.1837 30.4826C17.1745 30.3888 17.1442 30.2983 17.095 30.2179C17.0459 30.1376 16.9792 30.0693 16.9 30.0183C16.8207 29.9673 16.731 29.9349 16.6375 29.9235C15.1195 29.7397 13.622 29.4154 12.164 28.9547C11.8539 28.8605 11.591 28.6522 11.4283 28.3718C11.2657 28.0914 11.2153 27.7598 11.2875 27.4438C11.3293 27.2782 11.4045 27.1229 11.5087 26.9876C11.6128 26.8522 11.7436 26.7396 11.8929 26.6567C12.0423 26.5738 12.207 26.5225 12.377 26.5057C12.547 26.489 12.7186 26.5073 12.8812 26.5594C17.5207 27.9803 22.4792 27.9803 27.1187 26.5594C27.2811 26.5075 27.4525 26.4894 27.6222 26.5061C27.7919 26.5229 27.9564 26.5742 28.1055 26.6569C28.2547 26.7396 28.3853 26.8519 28.4894 26.987C28.5935 27.122 28.6689 27.277 28.7109 27.4422C28.7838 27.7585 28.7339 28.0907 28.5711 28.3715C28.4084 28.6523 28.145 28.8608 27.8343 28.9547C26.3769 29.4155 24.8799 29.7399 23.3625 29.9235C23.2689 29.9349 23.1792 29.9673 23.1 30.0183C23.0207 30.0693 22.954 30.1376 22.9049 30.2179C22.8558 30.2983 22.8254 30.3888 22.8162 30.4826C22.8069 30.5763 22.819 30.671 22.8515 30.7594L23.3968 32.236C23.5179 32.5584 23.7036 32.8527 23.9426 33.1008C24.1815 33.3489 24.4686 33.5455 24.7862 33.6787C25.1039 33.8118 25.4454 33.8786 25.7898 33.8751C26.1342 33.8715 26.4742 33.7976 26.789 33.6579L37.2578 29.0157C37.7979 28.7792 38.2366 28.3587 38.4958 27.8291C38.755 27.2995 38.818 26.6951 38.6734 26.1235ZM14.375 22.6251C14.0041 22.6251 13.6416 22.5151 13.3333 22.3091C13.0249 22.103 12.7846 21.8102 12.6427 21.4676C12.5008 21.125 12.4636 20.748 12.536 20.3843C12.6083 20.0206 12.7869 19.6865 13.0491 19.4242C13.3114 19.162 13.6454 18.9834 14.0092 18.9111C14.3729 18.8387 14.7499 18.8759 15.0925 19.0178C15.4351 19.1597 15.7279 19.4 15.934 19.7084C16.14 20.0167 16.25 20.3792 16.25 20.7501C16.25 21.2473 16.0524 21.7243 15.7008 22.0759C15.3492 22.4275 14.8722 22.6251 14.375 22.6251ZM25.625 22.6251C25.2541 22.6251 24.8916 22.5151 24.5833 22.3091C24.2749 22.103 24.0346 21.8102 23.8927 21.4676C23.7508 21.125 23.7136 20.748 23.786 20.3843C23.8583 20.0206 24.0369 19.6865 24.2991 19.4242C24.5614 19.162 24.8954 18.9834 25.2592 18.9111C25.6229 18.8387 25.9999 18.8759 26.3425 19.0178C26.6851 19.1597 26.9779 19.4 27.184 19.7084C27.39 20.0167 27.5 20.3792 27.5 20.7501C27.5 21.2473 27.3024 21.7243 26.9508 22.0759C26.5991 22.4275 26.1222 22.6251 25.625 22.6251Z" fill="#171717"/>
</svg>
