<svg width="63" height="63" viewBox="0 0 63 63" fill="none" xmlns="http://www.w3.org/2000/svg">
<circle cx="31.5" cy="31.5" r="31" fill="#2A2A2A" stroke="#4E4E4E"/>
<g filter="url(#filter0_d_200_214)">
<path d="M17.26 20.5H40.605C41.795 20.5 42.88 20.7917 43.86 21.375C44.8633 21.935 45.6567 22.7167 46.24 23.72C46.8233 24.7 47.115 25.785 47.115 26.975C47.115 28.1183 46.835 29.2033 46.275 30.23C45.715 31.2567 44.9683 32.085 44.035 32.715C44.9683 33.3683 45.715 34.22 46.275 35.27C46.835 36.2967 47.115 37.3817 47.115 38.525C47.115 39.6917 46.8233 40.7767 46.24 41.78C45.6567 42.76 44.8633 43.5417 43.86 44.125C42.88 44.7083 41.795 45 40.605 45H17.26V20.5ZM30.07 31.735C30.91 31.735 31.68 31.5367 32.38 31.14C33.1033 30.72 33.6633 30.16 34.06 29.46C34.48 28.7367 34.69 27.9667 34.69 27.15C34.69 26.31 34.48 25.54 34.06 24.84C33.6633 24.1167 33.1033 23.545 32.38 23.125C31.68 22.705 30.91 22.495 30.07 22.495H29.545V31.7C29.6617 31.7233 29.8367 31.735 30.07 31.735ZM30.07 42.97C30.91 42.97 31.68 42.7717 32.38 42.375C33.1033 41.955 33.6633 41.395 34.06 40.695C34.48 39.9717 34.69 39.19 34.69 38.35C34.69 37.5333 34.48 36.775 34.06 36.075C33.6633 35.3517 33.1033 34.7917 32.38 34.395C31.68 33.975 30.91 33.765 30.07 33.765H29.545V42.935C29.6617 42.9583 29.8367 42.97 30.07 42.97Z" fill="#E8E8E8"/>
</g>
<defs>
<filter id="filter0_d_200_214" x="13.26" y="20.5" width="37.855" height="32.5" filterUnits="userSpaceOnUse" color-interpolation-filters="sRGB">
<feFlood flood-opacity="0" result="BackgroundImageFix"/>
<feColorMatrix in="SourceAlpha" type="matrix" values="0 0 0 0 0 0 0 0 0 0 0 0 0 0 0 0 0 0 127 0" result="hardAlpha"/>
<feOffset dy="4"/>
<feGaussianBlur stdDeviation="2"/>
<feComposite in2="hardAlpha" operator="out"/>
<feColorMatrix type="matrix" values="0 0 0 0 0 0 0 0 0 0 0 0 0 0 0 0 0 0 0.25 0"/>
<feBlend mode="normal" in2="BackgroundImageFix" result="effect1_dropShadow_200_214"/>
<feBlend mode="normal" in="SourceGraphic" in2="effect1_dropShadow_200_214" result="shape"/>
</filter>
</defs>
</svg>
