<svg width="52" height="52" viewBox="0 0 52 52" fill="none" xmlns="http://www.w3.org/2000/svg">
<g filter="url(#filter0_d_81_604)">
<rect x="4" width="44" height="44" rx="6" fill="#2C2C2C"/>
<g clip-path="url(#clip0_81_604)">
<g filter="url(#filter1_d_81_604)">
<path d="M12.6364 32C11.3485 32 10.2533 31.562 9.35073 30.686C8.44819 29.81 7.99795 28.748 8.00001 27.5V24.5H12.6364V27.5H17.2727V14H21.9091V27.5C21.9091 28.75 21.4578 29.813 20.5553 30.689C19.6527 31.565 18.5585 32.002 17.2727 32H12.6364ZM29.6364 32C28.7606 32 28.026 31.712 27.4325 31.136C26.8391 30.56 26.5434 29.848 26.5455 29V26H31.1818V27.5H37.3636V24.5H29.6364C28.7606 24.5 28.026 24.212 27.4325 23.636C26.8391 23.06 26.5434 22.348 26.5455 21.5V17C26.5455 16.15 26.8422 15.437 27.4356 14.861C28.0291 14.285 28.7627 13.998 29.6364 14H38.9091C39.7848 14 40.5194 14.288 41.1129 14.864C41.7064 15.44 42.002 16.152 42 17V20H37.3636V18.5H31.1818V21.5H38.9091C39.7848 21.5 40.5194 21.788 41.1129 22.364C41.7064 22.94 42.002 23.652 42 24.5V29C42 29.85 41.7033 30.563 41.1098 31.139C40.5164 31.715 39.7828 32.002 38.9091 32H29.6364Z" fill="#4E58BC"/>
</g>
</g>
</g>
<defs>
<filter id="filter0_d_81_604" x="0" y="0" width="52" height="52" filterUnits="userSpaceOnUse" color-interpolation-filters="sRGB">
<feFlood flood-opacity="0" result="BackgroundImageFix"/>
<feColorMatrix in="SourceAlpha" type="matrix" values="0 0 0 0 0 0 0 0 0 0 0 0 0 0 0 0 0 0 127 0" result="hardAlpha"/>
<feOffset dy="4"/>
<feGaussianBlur stdDeviation="2"/>
<feComposite in2="hardAlpha" operator="out"/>
<feColorMatrix type="matrix" values="0 0 0 0 0 0 0 0 0 0 0 0 0 0 0 0 0 0 0.25 0"/>
<feBlend mode="normal" in2="BackgroundImageFix" result="effect1_dropShadow_81_604"/>
<feBlend mode="normal" in="SourceGraphic" in2="effect1_dropShadow_81_604" result="shape"/>
</filter>
<filter id="filter1_d_81_604" x="6" y="14" width="38" height="60" filterUnits="userSpaceOnUse" color-interpolation-filters="sRGB">
<feFlood flood-opacity="0" result="BackgroundImageFix"/>
<feColorMatrix in="SourceAlpha" type="matrix" values="0 0 0 0 0 0 0 0 0 0 0 0 0 0 0 0 0 0 127 0" result="hardAlpha"/>
<feOffset dy="40"/>
<feGaussianBlur stdDeviation="1"/>
<feComposite in2="hardAlpha" operator="out"/>
<feColorMatrix type="matrix" values="0 0 0 0 0 0 0 0 0 0 0 0 0 0 0 0 0 0 0.25 0"/>
<feBlend mode="normal" in2="BackgroundImageFix" result="effect1_dropShadow_81_604"/>
<feBlend mode="normal" in="SourceGraphic" in2="effect1_dropShadow_81_604" result="shape"/>
</filter>
<clipPath id="clip0_81_604">
<rect width="42" height="42" fill="white" transform="translate(5 2)"/>
</clipPath>
</defs>
</svg>
