<svg width="52" height="52" viewBox="0 0 52 52" fill="none" xmlns="http://www.w3.org/2000/svg">
<g filter="url(#filter0_d_81_652)">
<rect x="4" width="44" height="44" rx="6" fill="#2C2C2C"/>
<g clip-path="url(#clip0_81_652)">
<g filter="url(#filter1_d_81_652)">
<path d="M9.0531 25.2219V10.5594L21.75 17.8906V22.7781L13.2765 17.8906V27.6656L9.0531 25.2219ZM21.75 17.8906L34.4734 10.5594V25.2485L26 30.1094L21.75 27.6656L30.25 22.7781V17.8906L21.75 22.7781V17.8906Z" fill="#9D6E2F"/>
</g>
<g filter="url(#filter2_d_81_652)">
<path d="M21.75 27.6656V32.5531L30.25 37.4406V32.5531L21.75 27.6656ZM30.25 37.4406L42.9469 30.1094V20.3344L38.6969 22.7781V27.6656L30.25 32.5531V37.4406ZM38.7234 17.8906V13.0031L42.9734 10.5594V15.4469L38.7234 17.8906Z" fill="#9D6E2F"/>
</g>
</g>
</g>
<defs>
<filter id="filter0_d_81_652" x="0" y="0" width="52" height="52" filterUnits="userSpaceOnUse" color-interpolation-filters="sRGB">
<feFlood flood-opacity="0" result="BackgroundImageFix"/>
<feColorMatrix in="SourceAlpha" type="matrix" values="0 0 0 0 0 0 0 0 0 0 0 0 0 0 0 0 0 0 127 0" result="hardAlpha"/>
<feOffset dy="4"/>
<feGaussianBlur stdDeviation="2"/>
<feComposite in2="hardAlpha" operator="out"/>
<feColorMatrix type="matrix" values="0 0 0 0 0 0 0 0 0 0 0 0 0 0 0 0 0 0 0.25 0"/>
<feBlend mode="normal" in2="BackgroundImageFix" result="effect1_dropShadow_81_652"/>
<feBlend mode="normal" in="SourceGraphic" in2="effect1_dropShadow_81_652" result="shape"/>
</filter>
<filter id="filter1_d_81_652" x="7.0531" y="8.55939" width="29.4203" height="23.55" filterUnits="userSpaceOnUse" color-interpolation-filters="sRGB">
<feFlood flood-opacity="0" result="BackgroundImageFix"/>
<feColorMatrix in="SourceAlpha" type="matrix" values="0 0 0 0 0 0 0 0 0 0 0 0 0 0 0 0 0 0 127 0" result="hardAlpha"/>
<feOffset/>
<feGaussianBlur stdDeviation="1"/>
<feComposite in2="hardAlpha" operator="out"/>
<feColorMatrix type="matrix" values="0 0 0 0 0 0 0 0 0 0 0 0 0 0 0 0 0 0 0.25 0"/>
<feBlend mode="normal" in2="BackgroundImageFix" result="effect1_dropShadow_81_652"/>
<feBlend mode="normal" in="SourceGraphic" in2="effect1_dropShadow_81_652" result="shape"/>
</filter>
<filter id="filter2_d_81_652" x="19.75" y="8.55939" width="25.2234" height="30.8813" filterUnits="userSpaceOnUse" color-interpolation-filters="sRGB">
<feFlood flood-opacity="0" result="BackgroundImageFix"/>
<feColorMatrix in="SourceAlpha" type="matrix" values="0 0 0 0 0 0 0 0 0 0 0 0 0 0 0 0 0 0 127 0" result="hardAlpha"/>
<feOffset/>
<feGaussianBlur stdDeviation="1"/>
<feComposite in2="hardAlpha" operator="out"/>
<feColorMatrix type="matrix" values="0 0 0 0 0 0 0 0 0 0 0 0 0 0 0 0 0 0 0.25 0"/>
<feBlend mode="normal" in2="BackgroundImageFix" result="effect1_dropShadow_81_652"/>
<feBlend mode="normal" in="SourceGraphic" in2="effect1_dropShadow_81_652" result="shape"/>
</filter>
<clipPath id="clip0_81_652">
<rect width="34" height="34" fill="white" transform="translate(9 7)"/>
</clipPath>
</defs>
</svg>
