<svg width="52" height="52" viewBox="0 0 52 52" fill="none" xmlns="http://www.w3.org/2000/svg">
<g filter="url(#filter0_d_81_569)">
<rect x="4" width="44" height="44" rx="6" fill="#2C2C2C"/>
<g filter="url(#filter1_d_81_569)">
<path d="M25.6207 6.06897C25.1996 6.06897 24.763 6.17884 24.4043 6.38288L12.8025 13.132C12.054 13.5715 11.5862 14.3876 11.5862 15.2666V28.7334C11.5862 29.6124 12.054 30.4285 12.8025 30.868L15.8433 32.6259C17.3247 33.3479 17.8237 33.3636 18.5099 33.3636C20.693 33.3636 21.9561 32.0295 21.9561 29.7065V16.4124C21.9561 16.224 21.8002 16.0671 21.613 16.0671H20.1628C19.9601 16.0671 19.8042 16.224 19.8042 16.4124V29.7065C19.8042 30.7425 18.7438 31.7627 17.044 30.8994L13.8473 29.063C13.7948 29.0257 13.7519 28.9764 13.722 28.919C13.6922 28.8617 13.6763 28.7981 13.6758 28.7334V15.2666C13.6758 15.1253 13.7381 14.9998 13.8473 14.937L25.4491 8.20357C25.5427 8.14079 25.6986 8.14079 25.7922 8.20357L37.394 14.937C37.5032 14.9998 37.5656 15.1253 37.5656 15.2666V28.7334C37.5656 28.859 37.5032 28.9845 37.394 29.063L25.7922 35.7964C25.6986 35.8592 25.5427 35.8592 25.4335 35.7964L22.5019 34.0071C22.3771 33.9601 22.2524 33.9444 22.1744 33.9914C21.3479 34.4623 21.192 34.5565 20.4279 34.7919C20.2408 34.8547 19.9445 34.9646 20.5371 35.2942L24.4043 37.6014C24.7786 37.8212 25.184 37.931 25.6207 37.931C26.0573 37.931 26.4627 37.8212 26.837 37.6014L38.4388 30.868C39.1873 30.4285 39.6551 29.6124 39.6551 28.7334V15.2666C39.6551 14.3876 39.1873 13.5715 38.4388 13.132L26.837 6.38288C26.4783 6.17884 26.0573 6.06897 25.6207 6.06897ZM28.7394 15.7218C25.4335 15.7218 23.4531 17.1187 23.4531 19.473C23.4531 22 25.4179 22.7377 28.5991 23.0516C32.3884 23.4283 32.6847 23.9933 32.6847 24.7467C32.6847 26.0495 31.6399 26.5988 29.2073 26.5988C26.1197 26.5988 25.4647 25.8297 25.2308 24.2916C25.2144 24.2121 25.1714 24.1406 25.1089 24.0892C25.0465 24.0378 24.9684 24.0095 24.8878 24.009H23.3907C23.2036 24.009 23.0633 24.1503 23.0633 24.3543C23.0633 26.3006 24.1237 28.6549 29.2073 28.6549C32.8718 28.6549 34.977 27.1952 34.977 24.6526C34.977 22.1256 33.2928 21.4664 29.7219 20.9798C26.1197 20.5089 25.761 20.2578 25.761 19.4102C25.761 18.7039 26.0729 17.7622 28.7394 17.7622C31.0785 17.7622 31.9986 18.2801 32.3572 19.8968C32.3884 20.0537 32.5287 20.1636 32.6847 20.1636H34.1973C34.2753 20.1636 34.3688 20.1322 34.4312 20.0537C34.4936 19.991 34.5404 19.8968 34.5092 19.8026C34.2909 17.0088 32.4508 15.7218 28.7394 15.7218Z" fill="#829414"/>
</g>
</g>
<defs>
<filter id="filter0_d_81_569" x="0" y="0" width="52" height="52" filterUnits="userSpaceOnUse" color-interpolation-filters="sRGB">
<feFlood flood-opacity="0" result="BackgroundImageFix"/>
<feColorMatrix in="SourceAlpha" type="matrix" values="0 0 0 0 0 0 0 0 0 0 0 0 0 0 0 0 0 0 127 0" result="hardAlpha"/>
<feOffset dy="4"/>
<feGaussianBlur stdDeviation="2"/>
<feComposite in2="hardAlpha" operator="out"/>
<feColorMatrix type="matrix" values="0 0 0 0 0 0 0 0 0 0 0 0 0 0 0 0 0 0 0.25 0"/>
<feBlend mode="normal" in2="BackgroundImageFix" result="effect1_dropShadow_81_569"/>
<feBlend mode="normal" in="SourceGraphic" in2="effect1_dropShadow_81_569" result="shape"/>
</filter>
<filter id="filter1_d_81_569" x="9.58618" y="4.06897" width="32.069" height="35.8621" filterUnits="userSpaceOnUse" color-interpolation-filters="sRGB">
<feFlood flood-opacity="0" result="BackgroundImageFix"/>
<feColorMatrix in="SourceAlpha" type="matrix" values="0 0 0 0 0 0 0 0 0 0 0 0 0 0 0 0 0 0 127 0" result="hardAlpha"/>
<feOffset/>
<feGaussianBlur stdDeviation="1"/>
<feComposite in2="hardAlpha" operator="out"/>
<feColorMatrix type="matrix" values="0 0 0 0 0 0 0 0 0 0 0 0 0 0 0 0 0 0 0.25 0"/>
<feBlend mode="normal" in2="BackgroundImageFix" result="effect1_dropShadow_81_569"/>
<feBlend mode="normal" in="SourceGraphic" in2="effect1_dropShadow_81_569" result="shape"/>
</filter>
</defs>
</svg>
