<svg width="53" height="52" viewBox="0 0 53 52" fill="none" xmlns="http://www.w3.org/2000/svg">
<g filter="url(#filter0_d_81_630)">
<rect x="4.5" width="44" height="44" rx="6" fill="#2C2C2C"/>
<g clip-path="url(#clip0_81_630)">
<g filter="url(#filter1_d_81_630)">
<path d="M28.4722 7.12763C19.9833 6.03876 12.2165 12.0373 11.1277 20.5274C10.0388 29.0162 16.036 36.7817 24.5261 37.8719C33.0162 38.9608 40.7843 32.9623 41.8706 24.4721C42.9608 15.9833 36.9636 8.2178 28.4722 7.12763ZM31.6639 16.7958C31.3762 16.7995 31.1014 16.9154 30.8979 17.1187L25.1461 22.8705L24.7496 22.4739L23.919 21.6434C29.5882 15.991 30.6099 15.9368 31.6639 16.7958ZM25.3825 23.0745L31.1175 17.3395C31.1927 17.2607 31.2831 17.198 31.3833 17.1554C31.4836 17.1127 31.5914 17.0909 31.7004 17.0914C31.8093 17.0918 31.917 17.1145 32.0168 17.158C32.1167 17.2015 32.2067 17.2649 32.2812 17.3443C32.3557 17.4238 32.4132 17.5176 32.4503 17.62C32.4873 17.7225 32.503 17.8314 32.4965 17.9401C32.49 18.0488 32.4613 18.1551 32.4123 18.2524C32.3633 18.3497 32.295 18.4359 32.2115 18.5059L26.142 23.834L25.3825 23.0745ZM25.8087 23.971L24.3879 24.2784C24.3709 24.2822 24.3532 24.2802 24.3375 24.2727C24.3218 24.2652 24.3091 24.2527 24.3014 24.237C24.2927 24.2221 24.2893 24.2048 24.2916 24.1877C24.294 24.1706 24.3019 24.1548 24.3143 24.1428L25.1474 23.3096L25.8087 23.971ZM22.1882 23.3781L23.702 21.8643L24.8374 22.9983L22.2812 23.5486C22.2599 23.5541 22.2373 23.5521 22.2173 23.5429C22.1973 23.5338 22.1811 23.518 22.1714 23.4982C22.1594 23.4795 22.1544 23.4571 22.1575 23.435C22.1606 23.413 22.1715 23.3928 22.1882 23.3781ZM17.4788 31.203C17.4659 31.2019 17.4533 31.1982 17.4418 31.1922C17.4303 31.1862 17.4202 31.1779 17.4119 31.168C17.4036 31.158 17.3974 31.1465 17.3936 31.1341C17.3897 31.1217 17.3884 31.1087 17.3897 31.0958C17.3921 31.0733 17.4021 31.0524 17.4181 31.0364H17.4207L18.6426 29.8145L20.221 31.3929L17.4788 31.203ZM20.6111 29.5807C20.5525 29.6109 20.5058 29.66 20.4784 29.7199C20.451 29.7799 20.4445 29.8473 20.4599 29.9113L20.7222 31.0286C20.7306 31.0631 20.7275 31.0993 20.7133 31.1318C20.6992 31.1643 20.6747 31.1912 20.6437 31.2084C20.6127 31.2256 20.5769 31.2321 20.5418 31.2269C20.5067 31.2218 20.4743 31.2052 20.4496 31.1798H20.4457L19.2393 29.9733L18.8596 29.5923L23.7188 24.7382L26.0697 24.2306L27.1986 25.3595C25.5775 26.7829 23.361 28.2025 20.6111 29.5807ZM27.4298 25.1528H27.4272L26.3435 24.0691L32.413 18.741C32.4692 18.6911 32.5206 18.6362 32.5667 18.577C32.3756 20.3143 29.9459 22.7684 27.4298 25.1528ZM32.1534 16.8087L32.1495 16.8061C31.7225 16.377 31.4772 15.7998 31.4647 15.1946C31.4522 14.5893 31.6734 14.0025 32.0823 13.5561C32.4913 13.1098 33.0565 12.8382 33.6606 12.7978C34.2646 12.7574 34.861 12.9513 35.3257 13.3393L33.2462 15.4227C33.2317 15.437 33.2203 15.454 33.2125 15.4727C33.2047 15.4915 33.2007 15.5116 33.2007 15.5319C33.2007 15.5522 33.2047 15.5723 33.2125 15.591C33.2203 15.6097 33.2317 15.6267 33.2462 15.641L34.8569 17.2517C34.4166 17.4703 33.9188 17.5451 33.4338 17.4656C32.9487 17.3861 32.5009 17.1563 32.1534 16.8087ZM35.4833 16.8087C35.3765 16.9142 35.2592 17.0085 35.1333 17.0903L33.5729 15.5312L35.5531 13.5511C36.4069 14.4811 36.3759 15.9174 35.4833 16.8087ZM35.3542 14.8143C35.3231 14.8369 35.2998 14.8685 35.2876 14.9048C35.2753 14.9411 35.2746 14.9804 35.2857 15.0171C35.3317 15.1103 35.3497 15.2147 35.3375 15.3179C35.3254 15.4211 35.2836 15.5185 35.2172 15.5984C35.2024 15.617 35.1915 15.6384 35.185 15.6613C35.1784 15.6842 35.1765 15.7081 35.1793 15.7318C35.182 15.7554 35.1894 15.7783 35.201 15.7991C35.2127 15.8198 35.2283 15.8381 35.2469 15.8528C35.278 15.8772 35.316 15.8908 35.3554 15.8916C35.3816 15.8914 35.4074 15.8855 35.431 15.8743C35.4546 15.8632 35.4756 15.847 35.4924 15.827C35.6033 15.6937 35.673 15.531 35.693 15.3587C35.7129 15.1864 35.6823 15.0121 35.6047 14.857C35.5912 14.8376 35.574 14.821 35.554 14.8084C35.534 14.7957 35.5117 14.7871 35.4884 14.7831C35.4651 14.7792 35.4412 14.7799 35.4181 14.7852C35.3951 14.7906 35.3733 14.8005 35.3542 14.8143Z" fill="#9D6E2F"/>
</g>
</g>
</g>
<defs>
<filter id="filter0_d_81_630" x="0.5" y="0" width="52" height="52" filterUnits="userSpaceOnUse" color-interpolation-filters="sRGB">
<feFlood flood-opacity="0" result="BackgroundImageFix"/>
<feColorMatrix in="SourceAlpha" type="matrix" values="0 0 0 0 0 0 0 0 0 0 0 0 0 0 0 0 0 0 127 0" result="hardAlpha"/>
<feOffset dy="4"/>
<feGaussianBlur stdDeviation="2"/>
<feComposite in2="hardAlpha" operator="out"/>
<feColorMatrix type="matrix" values="0 0 0 0 0 0 0 0 0 0 0 0 0 0 0 0 0 0 0.25 0"/>
<feBlend mode="normal" in2="BackgroundImageFix" result="effect1_dropShadow_81_630"/>
<feBlend mode="normal" in="SourceGraphic" in2="effect1_dropShadow_81_630" result="shape"/>
</filter>
<filter id="filter1_d_81_630" x="9" y="5" width="34.9985" height="34.9995" filterUnits="userSpaceOnUse" color-interpolation-filters="sRGB">
<feFlood flood-opacity="0" result="BackgroundImageFix"/>
<feColorMatrix in="SourceAlpha" type="matrix" values="0 0 0 0 0 0 0 0 0 0 0 0 0 0 0 0 0 0 127 0" result="hardAlpha"/>
<feOffset/>
<feGaussianBlur stdDeviation="1"/>
<feComposite in2="hardAlpha" operator="out"/>
<feColorMatrix type="matrix" values="0 0 0 0 0 0 0 0 0 0 0 0 0 0 0 0 0 0 0.25 0"/>
<feBlend mode="normal" in2="BackgroundImageFix" result="effect1_dropShadow_81_630"/>
<feBlend mode="normal" in="SourceGraphic" in2="effect1_dropShadow_81_630" result="shape"/>
</filter>
<clipPath id="clip0_81_630">
<rect width="31" height="31" fill="white" transform="translate(11 7)"/>
</clipPath>
</defs>
</svg>
