<svg width="52" height="52" viewBox="0 0 52 52" fill="none" xmlns="http://www.w3.org/2000/svg">
<g filter="url(#filter0_d_81_619)">
<rect x="4" width="44" height="44" rx="6" fill="#2C2C2C"/>
<g filter="url(#filter1_d_81_619)">
<path d="M29.2171 27.923C28.4303 29.0547 27.5728 30.1345 26.65 31.1558C29.1084 33.5681 31.3934 34.6977 32.6615 33.956C33.9296 33.2158 34.1045 30.6489 33.2683 27.2913C32.0149 27.5737 30.6542 27.7893 29.2171 27.923ZM27.2922 28.0523C26.1783 28.099 25.0631 28.099 23.9492 28.0523C24.5017 28.7836 25.063 29.4614 25.62 30.0782C26.1783 29.4614 26.7382 28.7851 27.2922 28.0523ZM34.6981 16.3193C38.6141 17.4549 41.1724 19.3425 41.1724 21.621C41.1724 23.8995 38.6156 25.7872 34.6996 26.9227C35.6841 30.9209 35.3461 34.1046 33.3962 35.2432C31.4463 36.3832 28.5515 35.0871 25.62 32.2244C22.6899 35.0856 19.7951 36.3832 17.8452 35.2432C15.8938 34.1046 15.5573 30.9209 16.5418 26.9227C12.6258 25.7872 10.069 23.8995 10.069 21.621C10.069 19.3425 12.6258 17.4549 16.5418 16.3193C15.5573 12.3211 15.8953 9.13739 17.8452 7.99738C19.7951 6.85886 22.6899 8.15493 25.62 11.0176C28.5515 8.15493 31.4463 6.85886 33.3962 7.99738C35.3461 9.13739 35.6841 12.3211 34.6996 16.3193H34.6981ZM33.2683 15.9507C34.1059 12.5916 33.9296 10.0262 32.6615 9.28454C31.3934 8.54435 29.1084 9.67396 26.6515 12.0863C27.5737 13.1077 28.4306 14.1875 29.2171 15.319C30.6542 15.4528 32.0149 15.6668 33.2683 15.9507ZM17.9716 27.2913C17.1355 30.6504 17.3103 33.2158 18.5799 33.956C19.848 34.6962 22.133 33.5681 24.5899 31.1558C23.6675 30.134 22.8105 29.0538 22.0243 27.9215C20.6619 27.7983 19.3088 27.5873 17.973 27.2898L17.9716 27.2913ZM23.9492 15.1897C25.0631 15.1431 26.1783 15.1431 27.2922 15.1897C26.7639 14.4903 26.206 13.8144 25.62 13.1638C25.0616 13.7822 24.5032 14.4584 23.9492 15.1897ZM22.0243 15.319C22.8106 14.1873 23.6675 13.1075 24.5899 12.0863C22.133 9.67396 19.848 8.54435 18.5814 9.28454C17.3133 10.0262 17.1369 12.5931 17.9745 15.9507C19.2279 15.6683 20.5872 15.4543 22.0243 15.319ZM28.4016 26.4962C29.4486 24.9436 30.3794 23.314 31.1862 21.621C30.3804 19.9281 29.4506 18.2985 28.4045 16.7459C26.5522 16.6056 24.6921 16.6056 22.8398 16.7459C21.7928 18.2985 20.862 19.928 20.0552 21.621C20.8616 23.3139 21.7919 24.9435 22.8383 26.4962C24.6907 26.6362 26.5507 26.6362 28.4031 26.4962H28.4016ZM30.2898 26.3C31.1935 26.1811 32.0531 26.0294 32.8613 25.8496C32.5971 25.011 32.297 24.1843 31.962 23.3719C31.4452 24.3708 30.8863 25.3476 30.2898 26.3ZM20.9501 16.9406C20.0464 17.0595 19.1868 17.2126 18.3786 17.3924C18.6284 18.1891 18.9296 19.0185 19.2794 19.8701C19.7961 18.8712 20.3535 17.8944 20.9501 16.9421V16.9406ZM18.3786 25.8496C19.1868 26.0294 20.0464 26.1811 20.9501 26.3C20.3535 25.3476 19.7962 24.3708 19.2794 23.3719C18.9439 24.1843 18.6433 25.0109 18.3786 25.8496ZM16.9415 25.4855C17.3265 24.2459 17.8232 22.9468 18.4256 21.621C17.8502 20.3661 17.3544 19.0753 16.9415 17.7566C13.6485 18.7019 11.5384 20.1406 11.5384 21.621C11.5384 23.1014 13.6485 24.5387 16.9415 25.4855ZM32.8643 17.3924C32.014 17.2043 31.156 17.0535 30.2928 16.9406C30.8893 17.8929 31.4467 18.8698 31.9635 19.8686C32.3132 19.0185 32.613 18.1891 32.8643 17.3924ZM34.2999 17.7566C33.9178 18.9962 33.4182 20.2952 32.8158 21.621C33.4182 22.9468 33.9178 24.2459 34.2999 25.4855C37.5944 24.5387 39.7045 23.1014 39.7045 21.621C39.7045 20.1406 37.5944 18.7034 34.2999 17.7566ZM25.62 24.4138C25.2498 24.426 24.881 24.3628 24.5354 24.228C24.1899 24.0931 23.8747 23.8894 23.6086 23.6288C23.3425 23.3683 23.1308 23.0563 22.9863 22.7114C22.8418 22.3664 22.7673 21.9956 22.7673 21.621C22.7673 21.2464 22.8418 20.8756 22.9863 20.5307C23.1308 20.1857 23.3425 19.8737 23.6086 19.6132C23.8747 19.3527 24.1899 19.1489 24.5354 19.014C24.881 18.8792 25.2498 18.816 25.62 18.8282C26.3366 18.8519 27.0162 19.1565 27.5149 19.6776C28.0136 20.1988 28.2924 20.8957 28.2924 21.621C28.2924 22.3463 28.0136 23.0432 27.5149 23.5644C27.0162 24.0856 26.3366 24.3902 25.62 24.4138Z" fill="#829414"/>
</g>
</g>
<defs>
<filter id="filter0_d_81_619" x="0" y="0" width="52" height="52" filterUnits="userSpaceOnUse" color-interpolation-filters="sRGB">
<feFlood flood-opacity="0" result="BackgroundImageFix"/>
<feColorMatrix in="SourceAlpha" type="matrix" values="0 0 0 0 0 0 0 0 0 0 0 0 0 0 0 0 0 0 127 0" result="hardAlpha"/>
<feOffset dy="4"/>
<feGaussianBlur stdDeviation="2"/>
<feComposite in2="hardAlpha" operator="out"/>
<feColorMatrix type="matrix" values="0 0 0 0 0 0 0 0 0 0 0 0 0 0 0 0 0 0 0.25 0"/>
<feBlend mode="normal" in2="BackgroundImageFix" result="effect1_dropShadow_81_619"/>
<feBlend mode="normal" in="SourceGraphic" in2="effect1_dropShadow_81_619" result="shape"/>
</filter>
<filter id="filter1_d_81_619" x="8.06897" y="5.58621" width="35.1034" height="32.069" filterUnits="userSpaceOnUse" color-interpolation-filters="sRGB">
<feFlood flood-opacity="0" result="BackgroundImageFix"/>
<feColorMatrix in="SourceAlpha" type="matrix" values="0 0 0 0 0 0 0 0 0 0 0 0 0 0 0 0 0 0 127 0" result="hardAlpha"/>
<feOffset/>
<feGaussianBlur stdDeviation="1"/>
<feComposite in2="hardAlpha" operator="out"/>
<feColorMatrix type="matrix" values="0 0 0 0 0 0 0 0 0 0 0 0 0 0 0 0 0 0 0.25 0"/>
<feBlend mode="normal" in2="BackgroundImageFix" result="effect1_dropShadow_81_619"/>
<feBlend mode="normal" in="SourceGraphic" in2="effect1_dropShadow_81_619" result="shape"/>
</filter>
</defs>
</svg>
